<svg width="150" height="32" viewBox="0 0 150 32" fill="none" xmlns="http://www.w3.org/2000/svg">
<g id="Logo-Purplepay">
<g id="Group 1">
<g id="purplepay">
<path d="M110.404 28.7462H112.697L113.934 20.7469C114.527 22.3778 116.176 23.3874 118.211 23.3874C121.999 23.3874 124.859 20.1514 124.859 15.6987C124.859 12.3851 122.772 10.0811 119.809 10.0811C117.825 10.0811 116.305 10.9612 115.223 12.644L115.403 10.4176H113.29L110.404 28.7462ZM114.527 17.718C114.527 14.5855 116.588 12.1521 119.216 12.1521C121.252 12.1521 122.54 13.6018 122.54 15.8282C122.54 18.9347 120.505 21.3164 117.902 21.3164C115.764 21.3164 114.527 19.9702 114.527 17.718Z" fill="#7E57C2"/>
<path d="M129.081 23.3874C131.039 23.3874 132.817 22.4813 133.668 21.0057L133.565 23.0768H135.574L136.837 15.1033C137.326 12.0226 135.523 10.0811 132.173 10.0811C129.03 10.0811 126.994 11.6602 126.556 14.4302H128.695C128.952 12.7993 130.06 11.9709 131.967 11.9709C133.951 11.9709 134.904 13.0064 134.569 14.8962L134.518 15.2327L130.576 15.5434C127.252 15.8282 125.345 17.4332 125.345 19.9961C125.345 22.0412 126.84 23.3874 129.081 23.3874ZM129.906 21.5494C128.514 21.5494 127.69 20.8763 127.69 19.789C127.69 18.2875 128.798 17.3555 131.065 17.1743L134.286 16.9154L134.183 17.5885C133.822 20.022 132.173 21.5494 129.906 21.5494Z" fill="#7E57C2"/>
<path d="M135.339 28.7203C135.906 28.8756 136.524 28.9533 137.323 28.9533C139.436 28.9533 140.724 27.8142 141.729 25.9244L150 10.4176H147.475L142.218 20.6433L140.209 10.4176H137.864L140.724 23.5686L139.977 24.9925C139.178 26.5457 138.199 26.7787 137.194 26.7787H135.648L135.339 28.7203Z" fill="#7E57C2"/>
</g>
<g id="purplepay_2">
<path d="M37.0923 28.7462H40.9314L42.1167 20.8245C42.8123 21.9895 44.5129 22.8438 46.2908 22.8438C50.1557 22.8438 53.0157 19.7372 53.0157 15.181C53.0157 11.6602 50.774 9.22676 47.7337 9.22676C45.9558 9.22676 44.616 9.95162 43.6884 11.1683L43.7142 9.58919H40.1069L37.0923 28.7462ZM42.8896 16.6307C42.8896 14.3784 44.5129 12.6181 46.4969 12.6181C48.1459 12.6181 49.1766 13.7571 49.1766 15.4398C49.1766 17.6921 47.5533 19.4525 45.5693 19.4525C43.9203 19.4525 42.8896 18.3134 42.8896 16.6307Z" fill="#3C3C3C"/>
<path d="M63.3018 9.58919L62.1938 16.6566C61.9104 18.4687 60.9313 19.4007 59.4369 19.4007C58.0713 19.4007 57.2725 18.2875 57.5559 16.553L58.6639 9.58919H54.8247L53.5622 17.485C53.0984 20.4362 54.9278 22.8697 57.7878 22.8697C59.3338 22.8697 60.3644 22.3519 61.4466 21.1352L61.4982 22.5331H65.1054L67.1409 9.58919H63.3018Z" fill="#3C3C3C"/>
<path d="M77.7022 9.5633C77.2384 9.43386 76.7231 9.38209 76.2335 9.38209C74.6102 9.38209 73.3219 10.2105 72.6005 11.479L72.6778 9.58919H69.0705L67.035 22.5331H70.8742L71.776 16.786C72.1625 14.249 73.6827 13.1876 75.8985 13.1876H77.1353L77.7022 9.5633Z" fill="#3C3C3C"/>
<path d="M75.6437 28.7462H79.4828L80.6681 20.8245C81.3638 21.9895 83.0643 22.8438 84.8422 22.8438C88.7071 22.8438 91.5671 19.7372 91.5671 15.181C91.5671 11.6602 89.3255 9.22676 86.2851 9.22676C84.5072 9.22676 83.1674 9.95162 82.2398 11.1683L82.2656 9.58919H78.6583L75.6437 28.7462ZM81.4411 16.6307C81.4411 14.3784 83.0643 12.6181 85.0483 12.6181C86.6973 12.6181 87.728 13.7571 87.728 15.4398C87.728 17.6921 86.1047 19.4525 84.1207 19.4525C82.4717 19.4525 81.4411 18.3134 81.4411 16.6307Z" fill="#3C3C3C"/>
<path d="M95.6363 22.5331L98.7025 3.01367H94.8634L91.7972 22.5331H95.6363Z" fill="#3C3C3C"/>
<path d="M103.872 22.8438C106.912 22.8438 109.592 20.954 110.468 18.184H106.706C106.217 19.1418 105.289 19.6855 104.078 19.6855C102.429 19.6855 101.604 18.8312 101.501 17.0967L110.597 17.0449L110.751 16.0353C111.395 11.8932 109.18 9.22676 105.186 9.22676C101.012 9.22676 97.8426 12.5922 97.8426 17.0449C97.8426 20.721 100.058 22.8438 103.872 22.8438ZM104.954 12.3592C106.526 12.3592 107.376 13.2653 107.144 14.6891H101.888C102.455 13.2912 103.588 12.3592 104.954 12.3592Z" fill="#3C3C3C"/>
</g>
</g>
<g id="Group">
<path id="Vector" d="M11.8122 10.2686V18.4388L5.63037 19.9655V10.2686H11.8122Z" fill="#3C3C3C"/>
<path id="Vector_2" d="M1.42183 24.7395L0 18.449L19.5252 13.6204C21.1324 13.2226 22.3688 11.9595 22.6731 10.403C22.8586 9.44826 22.6731 8.67748 22.074 7.91168C21.3607 7.00166 20.1814 6.45963 18.926 6.45963H0.713291V0H18.9212C22.055 0 24.9462 1.3874 26.8483 3.80914C28.641 6.09164 29.2925 8.82169 28.7266 11.7009C27.9372 15.714 24.8843 18.9363 20.947 19.911L1.42183 24.7395Z" fill="#7E57C2"/>
<path id="Vector_3" d="M5.63037 25.3519L11.8122 23.8203V32.0005H5.63037V25.3519Z" fill="#3C3C3C"/>
</g>
</g>
</svg>
